<svg width="470" height="245" viewBox="0 0 470 245" fill="none" xmlns="http://www.w3.org/2000/svg">
<path d="M463.463 83.1463L399.504 102.881C391.329 81.8606 370.574 67.2542 346.728 68.0332C335.683 68.394 325.525 72.0289 317.111 77.9302L267.803 31.5528C288.28 13.4142 314.983 2.0174 344.464 1.05432C392.42 -0.512283 434.795 25.9343 455.842 65.6241C455.883 65.7107 455.936 65.7969 455.976 65.871C456.927 67.6861 457.854 69.5145 458.719 71.3702C460.489 75.1931 462.061 79.0852 463.45 83.1341L463.463 83.1463Z" fill="#FF9900"/>
<path d="M204.353 210.488C187.054 226.591 165 237.729 140.36 241.52C137.93 241.907 135.456 242.196 132.979 242.435C131.478 242.594 129.975 242.703 128.458 242.788C127.355 242.85 126.238 242.887 125.146 242.936C124.418 242.951 123.676 242.955 122.946 242.958C122.306 242.969 121.678 242.991 121.035 242.964C120.633 242.961 120.243 242.971 119.84 242.955C119.186 242.954 118.544 242.952 117.901 242.913C116.251 242.867 114.611 242.782 112.957 242.674C111.935 242.618 110.923 242.511 109.912 242.416C109.014 242.328 108.129 242.239 107.23 242.139C106.837 242.085 106.47 242.043 106.077 241.989C105.342 241.892 104.595 241.796 103.872 241.685C59.768 235.21 22.8812 204.836 7.68311 163.543L71.4 142.207C79.9583 163.252 101.169 177.556 125.142 176.216C136.074 175.606 146.062 171.804 154.303 165.787L204.329 210.502L204.353 210.488Z" fill="#FF9900"/>
<path d="M67.5023 124.666C66.7531 111.256 70.9072 98.7159 78.4005 88.7678L28.0968 43.8047C22.6997 50.3042 17.9764 57.382 13.9943 64.8962L12.0242 68.803C7.79656 77.5504 4.60837 86.8935 2.57308 96.6122C0.439014 106.814 -0.416776 117.385 0.190971 128.263C0.711197 137.575 2.26015 146.616 4.80504 155.249L68.8221 133.883C68.1393 130.891 67.678 127.812 67.5016 124.654L67.5023 124.666Z" fill="#00B3FF"/>
<path d="M119.053 67.0143C122.226 66.8371 125.338 66.9523 128.389 67.2974L142.144 1.72054C133.281 0.204197 124.12 -0.327509 114.755 0.19572C103.909 0.8016 93.4584 2.83125 83.5885 6.03532C74.1157 9.14179 65.1725 13.4004 56.9095 18.5765L53.3675 20.9116C46.3038 25.719 39.7926 31.187 33.9351 37.3225L84.1859 82.2382C93.2921 73.4697 105.451 67.7868 119.067 67.0261L119.053 67.0143Z" fill="#00B3FF"/>
<path d="M165.998 88.9965L170.205 92.9354L214.636 43.3587C212.011 40.2743 209.228 37.2868 206.314 34.4323L202.587 30.9696C202.587 30.9696 202.585 30.932 202.547 30.9341C195.147 24.3198 186.878 18.5838 178.015 13.9244L174.325 12.031C166.88 8.43652 158.897 5.56352 150.656 3.48438L136.922 68.9972C148.639 72.2902 158.835 79.4146 165.986 89.0098L165.998 88.9965Z" fill="#00B3FF"/>
<path d="M304.677 155.372L299.149 149.977L253.62 198.523C256.16 201.667 258.836 204.72 261.681 207.591L265.328 211.177C265.328 211.177 265.366 211.175 265.367 211.213C272.662 217.995 280.746 223.923 289.499 228.786L293.142 230.714C300.554 234.529 308.419 237.587 316.609 239.844L331.871 174.767C320.914 171.269 311.43 164.408 304.677 155.36L304.677 155.372Z" fill="#00B3FF"/>
<path d="M385.388 163.059C376.104 171.539 363.865 176.887 350.311 177.33C346.922 177.44 343.598 177.222 340.366 176.738L325.103 241.79C333.928 243.511 343.074 244.255 352.437 243.949C363.293 243.594 373.788 241.807 383.73 238.832C393.272 235.946 402.311 231.895 410.692 226.912L414.287 224.66C421.46 220.017 428.096 214.701 434.094 208.703L385.387 163.047L385.388 163.059Z" fill="#00B3FF"/>
<path d="M465.959 91.4934L401.999 111.203C402.667 114.346 403.087 117.585 403.195 120.897C403.636 134.397 399.132 146.902 391.324 156.702L440.081 202.356C445.627 195.983 450.513 189.017 454.668 181.597L456.728 177.737C461.157 169.09 464.61 159.821 466.869 150.102C469.202 139.991 470.29 129.444 469.934 118.554C469.628 109.182 468.29 100.158 465.946 91.4688L465.959 91.4934Z" fill="#00B3FF"/>
</svg>
