<svg width="474" height="326" viewBox="0 0 474 326" fill="none" xmlns="http://www.w3.org/2000/svg">
<path d="M0 324.711V280.016H7.12026L25.643 309.49V280.016H34.4962V324.711H27.3759L8.91602 295.236V324.711H0Z" fill="white"/>
<path d="M63.3039 325.016C62.3495 325.016 61.257 324.915 60.0137 324.714C58.7831 324.551 57.5775 324.149 56.4222 323.509C55.3046 322.868 54.3753 321.901 53.6093 320.608C52.8935 319.276 52.5293 317.468 52.5293 315.17V290.229C52.5293 288.257 52.8307 286.599 53.4209 285.281C54.0237 283.949 54.8148 282.907 55.8069 282.141C56.799 281.375 57.904 280.835 59.097 280.508C60.29 280.182 61.4704 280.031 62.6258 280.031C65.6145 280.031 68.2391 280.069 70.512 280.157C72.8227 280.232 74.8947 280.333 76.7281 280.458C78.5616 280.534 80.2318 280.659 81.7512 280.822V288.307H65.2503C64.0197 288.307 63.0527 288.609 62.3872 289.211C61.709 289.814 61.37 290.744 61.37 291.987V298.454L78.8881 298.932V306.002L61.37 306.479V312.646C61.37 313.688 61.5332 314.517 61.8472 315.12C62.2114 315.685 62.6634 316.087 63.216 316.325C63.8188 316.526 64.4341 316.627 65.0745 316.627H81.7512V324.111C79.9932 324.312 78.0467 324.476 75.8993 324.589C73.7896 324.714 71.6297 324.815 69.4446 324.89C67.2973 324.965 65.2378 325.016 63.2913 325.016H63.3039Z" fill="white"/>
<path d="M108.223 324.711V288.053H96.0919V280.016H129.27V288.053H117.076V324.711H108.223Z" fill="white"/>
<path d="M144.804 324.711V280.016H153.644V298.615H170.321V280.016H179.224V324.711H170.321V306.652H153.644V324.711H144.804Z" fill="white"/>
<path d="M208.346 325.016C207.392 325.016 206.299 324.915 205.056 324.714C203.825 324.551 202.62 324.149 201.464 323.509C200.347 322.868 199.417 321.901 198.651 320.608C197.936 319.276 197.571 317.468 197.571 315.17V290.229C197.571 288.257 197.873 286.599 198.463 285.281C199.066 283.949 199.857 282.907 200.849 282.141C201.841 281.375 202.946 280.835 204.139 280.508C205.332 280.182 206.513 280.031 207.668 280.031C210.657 280.031 213.281 280.069 215.554 280.157C217.865 280.232 219.937 280.333 221.77 280.458C223.604 280.534 225.274 280.659 226.793 280.822V288.307H210.292C209.062 288.307 208.095 288.609 207.429 289.211C206.751 289.814 206.412 290.744 206.412 291.987V298.454L223.918 298.932V306.002L206.412 306.479V312.646C206.412 313.688 206.575 314.517 206.889 315.12C207.253 315.685 207.706 316.087 208.258 316.325C208.861 316.526 209.476 316.627 210.117 316.627H226.793V324.111C225.035 324.312 223.089 324.476 220.941 324.589C218.832 324.714 216.672 324.815 214.487 324.89C212.339 324.965 210.28 325.016 208.333 325.016H208.346Z" fill="white"/>
<path d="M243.998 280.016H262.282C264.04 280.016 265.672 280.242 267.179 280.681C268.699 281.083 270.03 281.811 271.185 282.854C272.341 283.896 273.232 285.353 273.873 287.199C274.551 289.045 274.89 291.431 274.89 294.332C274.89 296.392 274.689 298.137 274.287 299.582C273.885 301.026 273.358 302.219 272.68 303.148C272.039 304.078 271.311 304.819 270.469 305.384C269.628 305.949 268.774 306.413 267.895 306.778L276.146 324.724H267.117L260.009 308.172H258.339C257.736 308.134 257.121 308.109 256.48 308.109H254.571C253.931 308.109 253.353 308.084 252.838 308.046V324.724H243.998V280.016ZM252.851 300.976H260.737C261.541 300.976 262.257 300.875 262.885 300.674C263.525 300.473 264.078 300.134 264.555 299.644C265.032 299.117 265.396 298.439 265.635 297.585C265.911 296.743 266.049 295.651 266.049 294.32C266.049 293.076 265.911 292.047 265.635 291.243C265.396 290.401 265.032 289.748 264.555 289.309C264.078 288.832 263.525 288.505 262.885 288.342C262.244 288.141 261.528 288.04 260.737 288.04H252.851V300.976Z" fill="white"/>
<path d="M291.039 324.711L296.175 280.016H304.664L314.823 314.263L324.92 280.016H333.346L338.545 324.711H330.006L326.176 291.795L327.557 291.908L318.892 324.711H310.579L301.788 291.908L303.283 291.858L299.578 324.711H291.039Z" fill="white"/>
<path d="M364.59 280.016H355.749V324.711H364.59V280.016Z" fill="white"/>
<path d="M383.326 324.711V280.016H390.434L408.969 309.49V280.016H417.81V324.711H410.702L392.229 295.236V324.711H383.326Z" fill="white"/>
<path d="M435.868 280.016H454.579C457.568 280.016 460.054 280.556 462.051 281.648C464.048 282.691 465.617 284.223 466.773 286.245C467.966 288.216 468.807 290.577 469.284 293.315C469.761 296.053 470 299.079 470 302.37C470 307.406 469.422 311.575 468.267 314.878C467.149 318.181 465.454 320.655 463.181 322.312C460.908 323.92 458.045 324.724 454.579 324.724H435.868V280.016ZM444.709 316.674H453.675C455.508 316.674 456.965 316.146 458.045 315.104C459.125 314.011 459.904 312.404 460.381 310.269C460.896 308.134 461.159 305.497 461.159 302.357C461.159 299.456 460.996 297.083 460.682 295.224C460.368 293.328 459.891 291.858 459.251 290.816C458.648 289.774 457.882 289.045 456.915 288.643C455.998 288.241 454.918 288.04 453.687 288.04H444.721V316.674H444.709Z" fill="white"/>
<path d="M463.463 83.1463L399.504 102.881C391.329 81.8606 370.574 67.2542 346.728 68.0332C335.683 68.394 325.525 72.0289 317.111 77.9302L267.803 31.5528C288.28 13.4142 314.983 2.0174 344.464 1.05432C392.42 -0.512283 434.795 25.9343 455.842 65.6241C455.883 65.7107 455.936 65.7969 455.976 65.871C456.927 67.6861 457.854 69.5145 458.719 71.3702C460.489 75.1931 462.061 79.0852 463.45 83.1341L463.463 83.1463Z" fill="#FF9900"/>
<path d="M204.353 210.488C187.054 226.591 165 237.729 140.36 241.52C137.93 241.907 135.456 242.196 132.979 242.435C131.478 242.594 129.975 242.703 128.458 242.788C127.355 242.85 126.238 242.887 125.146 242.936C124.418 242.951 123.676 242.955 122.946 242.958C122.306 242.969 121.678 242.991 121.035 242.964C120.633 242.961 120.243 242.971 119.84 242.955C119.186 242.954 118.544 242.952 117.901 242.913C116.251 242.867 114.611 242.782 112.957 242.674C111.935 242.618 110.923 242.511 109.912 242.416C109.014 242.328 108.129 242.239 107.23 242.139C106.837 242.085 106.47 242.043 106.077 241.989C105.342 241.892 104.595 241.796 103.872 241.685C59.768 235.21 22.8812 204.836 7.68311 163.543L71.4 142.207C79.9583 163.252 101.169 177.556 125.142 176.216C136.074 175.606 146.062 171.804 154.303 165.787L204.329 210.502L204.353 210.488Z" fill="#FF9900"/>
<path d="M67.5023 124.666C66.7531 111.256 70.9072 98.7159 78.4005 88.7678L28.0968 43.8047C22.6997 50.3042 17.9764 57.382 13.9943 64.8962L12.0242 68.803C7.79656 77.5504 4.60837 86.8935 2.57308 96.6122C0.439014 106.814 -0.416776 117.385 0.190971 128.263C0.711197 137.575 2.26015 146.616 4.80504 155.249L68.8221 133.883C68.1393 130.891 67.678 127.812 67.5016 124.654L67.5023 124.666Z" fill="#00B3FF"/>
<path d="M119.053 67.0143C122.226 66.8371 125.338 66.9523 128.389 67.2974L142.144 1.72054C133.281 0.204197 124.12 -0.327509 114.755 0.19572C103.909 0.8016 93.4584 2.83125 83.5885 6.03532C74.1157 9.14179 65.1725 13.4004 56.9095 18.5765L53.3675 20.9116C46.3038 25.719 39.7926 31.187 33.9351 37.3225L84.1859 82.2382C93.2921 73.4697 105.451 67.7868 119.067 67.0261L119.053 67.0143Z" fill="#00B3FF"/>
<path d="M165.998 88.9965L170.205 92.9354L214.636 43.3587C212.011 40.2743 209.228 37.2868 206.314 34.4323L202.587 30.9696C202.587 30.9696 202.585 30.932 202.547 30.9341C195.147 24.3198 186.878 18.5838 178.015 13.9244L174.325 12.031C166.88 8.43652 158.897 5.56352 150.656 3.48438L136.922 68.9972C148.639 72.2902 158.835 79.4146 165.986 89.0098L165.998 88.9965Z" fill="#00B3FF"/>
<path d="M304.677 155.372L299.149 149.977L253.62 198.523C256.16 201.667 258.836 204.72 261.681 207.591L265.328 211.177C265.328 211.177 265.366 211.175 265.367 211.213C272.662 217.995 280.746 223.923 289.499 228.786L293.142 230.714C300.554 234.529 308.419 237.587 316.609 239.844L331.871 174.767C320.914 171.269 311.43 164.408 304.677 155.36L304.677 155.372Z" fill="#00B3FF"/>
<path d="M385.388 163.059C376.104 171.539 363.865 176.887 350.311 177.33C346.922 177.44 343.598 177.222 340.366 176.738L325.103 241.79C333.928 243.511 343.074 244.255 352.437 243.949C363.293 243.594 373.788 241.807 383.73 238.832C393.272 235.946 402.311 231.895 410.692 226.912L414.287 224.66C421.46 220.017 428.096 214.701 434.094 208.703L385.387 163.047L385.388 163.059Z" fill="#00B3FF"/>
<path d="M465.959 91.4934L401.999 111.203C402.667 114.346 403.087 117.585 403.195 120.897C403.636 134.397 399.132 146.902 391.324 156.702L440.081 202.356C445.627 195.983 450.513 189.017 454.668 181.597L456.728 177.737C461.157 169.09 464.61 159.821 466.869 150.102C469.202 139.991 470.29 129.444 469.934 118.554C469.628 109.182 468.29 100.158 465.946 91.4688L465.959 91.4934Z" fill="#00B3FF"/>
</svg>
